<?xml version="1.0" standalone="no"?>
<!DOCTYPE svg PUBLIC "-//W3C//DTD SVG 20010904//EN"
 "http://www.w3.org/TR/2001/REC-SVG-20010904/DTD/svg10.dtd">
<svg version="1.0" xmlns="http://www.w3.org/2000/svg"
 width="300.000000pt" height="300.000000pt" viewBox="0 0 300.000000 300.000000"
 preserveAspectRatio="xMidYMid meet">
<metadata>
Created by potrace 1.11, written by Peter Selinger 2001-2013
</metadata>
<g transform="translate(0.000000,300.000000) scale(0.100000,-0.100000)"
fill="#000000" stroke="none">
<path d="M978 2447 c-28 -27 -85 -55 -127 -62 -57 -9 -149 -52 -161 -75 -6
-10 -36 -39 -69 -65 -33 -26 -83 -81 -116 -128 -32 -45 -71 -99 -87 -119 -15
-20 -28 -44 -28 -52 0 -9 -4 -16 -9 -16 -5 0 -17 -21 -27 -47 -10 -27 -21 -53
-26 -60 -5 -6 -13 -33 -18 -60 -5 -26 -18 -75 -30 -108 -23 -65 -26 -88 -35
-239 -3 -54 -15 -133 -26 -175 -12 -42 -22 -87 -23 -101 -2 -14 -8 -41 -14
-60 -7 -20 -14 -53 -15 -73 -2 -25 -11 -43 -25 -53 -16 -11 -22 -25 -22 -52 1
-41 20 -119 35 -142 5 -8 10 -18 10 -23 0 -4 14 -16 31 -26 17 -10 44 -40 60
-65 24 -39 37 -49 78 -61 27 -8 61 -15 75 -15 15 0 42 -5 61 -11 45 -13 217
-19 272 -9 24 5 63 11 88 16 25 4 181 8 348 9 286 1 303 2 317 21 8 10 15 28
15 39 1 11 3 29 6 40 2 11 6 50 9 87 5 63 4 68 -19 83 -23 16 -28 15 -92 -13
-74 -33 -81 -32 -137 17 -15 14 -50 34 -77 46 -28 12 -69 35 -93 52 l-43 30 3
69 c1 38 3 84 3 102 l0 32 68 -1 c84 -1 120 8 127 32 4 11 15 19 27 19 12 0
19 3 15 6 -3 4 3 24 13 45 12 22 20 58 20 86 0 76 65 215 138 293 49 52 131
181 192 300 72 142 81 155 129 196 22 20 69 69 102 111 59 71 136 139 147 128
9 -9 1 -151 -14 -246 -5 -36 -6 -37 -60 -41 -38 -3 -59 -10 -69 -24 -19 -25
-19 -58 0 -74 13 -11 10 -16 -22 -38 -61 -41 -76 -82 -39 -108 27 -19 72 -18
107 3 37 22 43 71 12 105 -13 15 -11 19 27 43 41 26 84 45 101 45 5 0 9 -13 9
-28 0 -15 6 -34 13 -41 10 -10 8 -14 -8 -23 -35 -20 -75 -66 -75 -87 0 -37 75
-59 120 -36 42 22 53 66 25 109 -15 22 -14 23 52 49 37 15 69 25 71 22 6 -6
-90 -165 -100 -165 -4 0 -8 -4 -8 -10 0 -18 24 -11 105 30 44 22 81 40 82 40
2 0 3 -15 3 -34 0 -56 51 -77 111 -46 27 15 75 81 89 123 12 38 10 74 -5 109
-6 16 1 17 81 15 124 -5 181 -37 154 -88 -38 -70 -359 -240 -423 -224 -23 6
-43 -7 -138 -84 -39 -33 -41 -33 -34 -10 4 13 14 32 23 42 22 25 11 29 -24 8
-16 -10 -41 -40 -54 -67 -14 -27 -31 -55 -38 -62 -36 -40 -87 -134 -107 -201
-39 -131 -17 -276 54 -353 13 -16 22 -28 19 -28 -9 0 30 -46 74 -89 74 -71
126 -111 146 -111 11 0 22 -7 25 -15 6 -13 67 -45 87 -45 5 0 6 9 3 20 -7 26
-4 26 77 -15 62 -31 70 -38 64 -59 -8 -35 29 -89 80 -114 46 -24 82 -29 70
-11 -5 9 -8 63 -5 119 1 9 31 48 69 88 37 39 75 85 85 102 l18 30 -33 1 c-109
4 -246 -7 -262 -20 -8 -7 -24 -10 -35 -6 -22 7 -75 78 -86 117 -4 12 -18 43
-32 68 -14 25 -25 60 -24 79 0 29 -44 113 -70 131 -8 6 -3 145 6 159 3 5 7 24
10 42 2 19 12 66 20 104 9 39 16 79 16 90 -2 49 8 63 61 80 29 10 92 37 140
60 257 127 312 225 154 272 -40 12 -190 12 -202 0 -4 -3 1 -23 11 -43 21 -45
11 -89 -35 -153 -47 -64 -103 -77 -116 -26 -9 38 5 64 67 124 32 32 59 65 59
74 0 21 -1 21 -43 1 -18 -9 -49 -39 -68 -66 -34 -51 -81 -88 -148 -115 -35
-15 -35 -15 -20 3 9 11 31 46 48 79 18 32 42 72 53 88 29 40 15 45 -27 8 -20
-17 -42 -31 -51 -31 -8 0 -37 -11 -64 -25 -61 -31 -74 -31 -87 -2 -18 40 17
67 80 61 42 -4 51 12 12 22 -45 11 -149 -16 -216 -56 -61 -37 -64 -37 -77 -19
-29 42 7 73 81 71 20 -1 37 1 37 6 0 4 7 48 15 97 9 50 18 120 21 157 9 93 -5
96 -98 24 -83 -63 -368 -347 -368 -366 0 -37 -115 -249 -171 -315 -10 -11 -45
-53 -79 -94 -51 -61 -68 -75 -94 -77 -17 -1 -44 -5 -59 -8 -46 -11 -108 12
-152 57 -46 46 -38 56 30 37 78 -22 135 15 119 77 -6 23 -4 25 88 43 56 11 88
30 88 52 0 6 7 19 16 29 26 28 9 75 -48 131 -49 49 -87 115 -88 152 0 10 -9
33 -19 50 -11 17 -27 51 -37 76 -9 25 -29 56 -43 70 -15 14 -33 34 -41 45 -8
11 -27 28 -42 38 -16 10 -28 26 -28 36 0 19 -29 51 -48 51 -6 0 -17 -6 -24
-13z m1502 -407 c0 -5 -5 -10 -11 -10 -5 0 -7 5 -4 10 3 6 8 10 11 10 2 0 4
-4 4 -10z m-521 -133 c-16 -30 -28 -37 -66 -37 -21 0 -36 6 -42 18 -12 22 -4
36 40 67 l34 24 23 -25 c18 -21 20 -29 11 -47z m195 34 c38 -42 -9 -100 -69
-85 -43 11 -43 34 0 71 45 39 47 39 69 14z"/>
</g>
</svg>
